<svg width="323" height="236" viewBox="0 0 323 236" fill="none" xmlns="http://www.w3.org/2000/svg">
<path fill-rule="evenodd" clip-rule="evenodd" d="M136.038 6.18791C157.499 12.0867 163.456 13.8135 185 19.5002C210.338 26.1884 240.792 7.37306 263 19.5002C282.893 30.3634 291.045 64.4586 298.358 83.2545C305.656 102.012 323.741 118.546 322.433 138.226C321.122 157.937 310.522 179.224 291.21 190.77C270.921 202.9 242.886 206.844 219 213C203.157 217.084 190.444 215.556 175.061 220.708C157.849 226.471 140.475 231.743 121.959 232.836C100.555 234.099 71.6912 241.679 58.6036 227.58C43.3954 211.195 49.0605 194.819 37.5 176.5C26.6531 159.312 5.83485 155.169 0.936146 136.2C-3.65875 118.408 17.3137 95.1325 29.5 80.0002C38.4869 68.8407 46.1178 57.2614 51.4861 44.6026C60.012 24.4981 60.0436 22.3923 79 8.00018C95.857 -4.79798 114.342 0.224759 136.038 6.18791Z" fill="#E2E8F0"/>
<g filter="url(#filter0_dd_2006_27195)">
<rect x="26.5" y="43" width="271" height="155" rx="8" fill="white"/>
<rect x="27" y="43.5" width="270" height="154" rx="7.5" stroke="#E2E8F0"/>
<rect x="41.5" y="60" width="65" height="9" rx="4.5" fill="#E2E8F0"/>
<rect x="41.5" y="80" width="25" height="4" rx="2" fill="#E2E8F0"/>
<rect x="41.5" y="176" width="25" height="4" rx="2" fill="#E2E8F0"/>
<rect x="41.5" y="96" width="25" height="4" rx="2" fill="#E2E8F0"/>
<rect x="41.5" y="112" width="25" height="4" rx="2" fill="#E2E8F0"/>
<rect x="41.5" y="128" width="25" height="4" rx="2" fill="#E2E8F0"/>
<rect x="41.5" y="160" width="25" height="4" rx="2" fill="#E2E8F0"/>
<rect x="81.5" y="80" width="95" height="4" rx="2" fill="#E2E8F0"/>
<rect x="41.5" y="144" width="25" height="4" rx="2" fill="#E2E8F0"/>
<rect x="81.5" y="176" width="95" height="4" rx="2" fill="#E2E8F0"/>
<rect x="81.5" y="96" width="66" height="4" rx="2" fill="#E2E8F0"/>
<rect x="81.5" y="112" width="74" height="4" rx="2" fill="#E2E8F0"/>
<rect x="256.5" y="120" width="24" height="4" rx="2" fill="#E2E8F0"/>
<rect x="256.5" y="136" width="24" height="4" rx="2" fill="#E2E8F0"/>
<rect x="256.5" y="152" width="24" height="4" rx="2" fill="#E2E8F0"/>
<rect x="256.5" y="168" width="24" height="4" rx="2" fill="#E2E8F0"/>
<rect x="256.5" y="104" width="24" height="4" rx="2" fill="#E2E8F0"/>
<rect x="256.5" y="88" width="24" height="4" rx="2" fill="#E2E8F0"/>
<rect x="157.5" y="110" width="1" height="8" rx="0.5" fill="#64748B"/>
<rect x="242.5" y="141" width="1" height="9" rx="0.5" fill="#64748B"/>
<rect x="78" y="105.5" width="106" height="17" rx="3.5" stroke="#FF8800"/>
<rect x="222" y="137.5" width="29" height="17" rx="3.5" stroke="#FF8800"/>
<rect x="81.5" y="128" width="95" height="4" rx="2" fill="#E2E8F0"/>
<rect x="81.5" y="160" width="95" height="4" rx="2" fill="#E2E8F0"/>
<rect x="81.5" y="144" width="44" height="4" rx="2" fill="#E2E8F0"/>
<rect x="201.5" y="60" width="25" height="9" rx="4.5" fill="#E2E8F0"/>
<rect x="191.5" y="77" width="25" height="9" rx="4" fill="#0973DC"/>
<rect x="231.5" y="77" width="9" height="9" rx="4.5" fill="#FDF5D3"/>
<rect x="231.5" y="94" width="9" height="9" rx="4.5" fill="#FDF5D3"/>
<rect x="231.5" y="110" width="9" height="9" rx="4.5" fill="#D3FDE5"/>
<rect x="231.5" y="125" width="9" height="9" rx="4.5" fill="#D3FDE5"/>
<rect x="231.5" y="141" width="9" height="9" rx="4.5" fill="#FFE0E1"/>
<rect x="231.5" y="158" width="9" height="9" rx="4.5" fill="#D3E0FD"/>
<rect x="231.5" y="174" width="9" height="9" rx="4.5" fill="#FFE0E1"/>
<rect x="191.5" y="94" width="25" height="9" rx="4" fill="#0973DC"/>
<rect x="191.5" y="158" width="25" height="9" rx="4" fill="#0973DC"/>
<rect x="191.5" y="141" width="25" height="9" rx="4" fill="#E60000"/>
<rect x="191.5" y="174" width="25" height="9" rx="4" fill="#E60000"/>
<rect x="191.5" y="110" width="25" height="9" rx="4" fill="#008A2E"/>
<rect x="191.5" y="125" width="25" height="9" rx="4" fill="#008A2E"/>
<rect x="229.5" y="60" width="25" height="9" rx="4.5" fill="#E2E8F0"/>
<rect x="257.5" y="60" width="25" height="9" rx="4.5" fill="#E2E8F0"/>
</g>
<defs>
<filter id="filter0_dd_2006_27195" x="14.5" y="41" width="295" height="179" filterUnits="userSpaceOnUse" color-interpolation-filters="sRGB">
<feFlood flood-opacity="0" result="BackgroundImageFix"/>
<feColorMatrix in="SourceAlpha" type="matrix" values="0 0 0 0 0 0 0 0 0 0 0 0 0 0 0 0 0 0 127 0" result="hardAlpha"/>
<feMorphology radius="4" operator="erode" in="SourceAlpha" result="effect1_dropShadow_2006_27195"/>
<feOffset dy="4"/>
<feGaussianBlur stdDeviation="3"/>
<feComposite in2="hardAlpha" operator="out"/>
<feColorMatrix type="matrix" values="0 0 0 0 0 0 0 0 0 0 0 0 0 0 0 0 0 0 0.1 0"/>
<feBlend mode="normal" in2="BackgroundImageFix" result="effect1_dropShadow_2006_27195"/>
<feColorMatrix in="SourceAlpha" type="matrix" values="0 0 0 0 0 0 0 0 0 0 0 0 0 0 0 0 0 0 127 0" result="hardAlpha"/>
<feMorphology radius="3" operator="erode" in="SourceAlpha" result="effect2_dropShadow_2006_27195"/>
<feOffset dy="10"/>
<feGaussianBlur stdDeviation="7.5"/>
<feComposite in2="hardAlpha" operator="out"/>
<feColorMatrix type="matrix" values="0 0 0 0 0 0 0 0 0 0 0 0 0 0 0 0 0 0 0.1 0"/>
<feBlend mode="normal" in2="effect1_dropShadow_2006_27195" result="effect2_dropShadow_2006_27195"/>
<feBlend mode="normal" in="SourceGraphic" in2="effect2_dropShadow_2006_27195" result="shape"/>
</filter>
</defs>
</svg>
