<svg width="92" height="20" viewBox="0 0 92 20" fill="none" xmlns="http://www.w3.org/2000/svg">
<path d="M5.03419 17.4979C5.03419 18.0605 4.83564 18.5293 4.43852 18.9043C4.04141 19.3014 3.57259 19.5 3.03208 19.5H2.98244C2.44192 19.5 1.97311 19.3014 1.576 18.9043C1.17888 18.5293 0.980324 18.0605 0.980324 17.4979V8.447C0.980324 6.24081 1.76352 4.35452 3.32991 2.78813C4.89631 1.22173 6.7826 0.438538 8.98879 0.438538C11.1839 0.438538 13.0647 1.22173 14.6311 2.78813C16.1975 4.35452 16.9807 6.24081 16.9807 8.447V17.4979C16.9807 18.0605 16.7821 18.5293 16.385 18.9043C16.01 19.3014 15.5412 19.5 14.9786 19.5H14.9455C14.3939 19.5 13.9196 19.3014 13.5225 18.9043C13.1254 18.5293 12.9268 18.0605 12.9268 17.4979V8.447C12.9268 7.35494 12.5463 6.42282 11.7851 5.65066C11.013 4.87849 10.0808 4.49241 8.98879 4.49241C7.88569 4.49241 6.94806 4.87849 6.1759 5.65066C5.41476 6.42282 5.03419 7.35494 5.03419 8.447V17.4979ZM29.3409 4.5255C27.8186 4.5255 26.5225 5.0605 25.4525 6.1305C24.3935 7.2005 23.864 8.49664 23.864 10.0189V10.1347L33.1134 5.98158C32.2972 5.01086 31.0396 4.5255 29.3409 4.5255ZM37.9946 5.99813C38.127 6.2739 38.1932 6.55519 38.1932 6.842C38.1932 7.07365 38.1491 7.3053 38.0608 7.53695C37.8733 8.0554 37.5203 8.43045 37.0019 8.6621C35.4575 9.35705 33.4278 10.2726 30.9128 11.4088C27.791 12.8208 25.9599 13.6536 25.4194 13.9073C26.2577 14.9663 27.5649 15.4958 29.3409 15.4958C30.5212 15.4958 31.5912 15.1483 32.5509 14.4533C33.4885 13.7694 34.1448 12.887 34.5199 11.8059C34.8398 10.9014 35.4796 10.4491 36.4393 10.4491C37.1232 10.4491 37.6692 10.7359 38.0774 11.3095C38.3311 11.6625 38.4579 12.0321 38.4579 12.4181C38.4579 12.6498 38.4138 12.887 38.3256 13.1296C37.6747 15.0159 36.533 16.5382 34.9005 17.6964C33.2458 18.8988 31.3926 19.5 29.3409 19.5C26.7155 19.5 24.4707 18.5679 22.6065 16.7037C20.7423 14.8394 19.8101 12.5946 19.8101 9.96927C19.8101 7.34391 20.7423 5.09911 22.6065 3.23488C24.4707 1.37065 26.7155 0.438538 29.3409 0.438538C31.2382 0.438538 32.97 0.956992 34.5364 1.9939C36.0918 3.00875 37.2445 4.34349 37.9946 5.99813ZM45.2585 3.91328C45.2585 5.00535 45.6391 5.93746 46.4002 6.70963C47.1724 7.48179 48.11 7.86788 49.2131 7.86788C50.3052 7.86788 51.2373 7.48179 52.0094 6.70963C52.7706 5.93746 53.1511 5.00535 53.1511 3.91328V2.4572C53.1511 1.90565 53.3497 1.43132 53.7468 1.03421C54.1439 0.637095 54.6183 0.438538 55.1698 0.438538H55.2029C55.7655 0.438538 56.2343 0.637095 56.6093 1.03421C57.0065 1.43132 57.205 1.90014 57.205 2.44065V3.91328C57.205 6.56071 56.3225 8.55179 54.5576 9.88654C56.3225 11.2323 57.205 13.2234 57.205 15.8598V17.4979C57.205 18.0605 57.0065 18.5293 56.6093 18.9043C56.2343 19.3014 55.7655 19.5 55.2029 19.5H55.1698C54.6183 19.5 54.1439 19.3014 53.7468 18.9043C53.3497 18.5293 53.1511 18.0605 53.1511 17.4979V15.8598C53.1511 14.7677 52.7706 13.8356 52.0094 13.0634C51.2373 12.3023 50.3052 11.9217 49.2131 11.9217C48.11 11.9217 47.1724 12.3023 46.4002 13.0634C45.6391 13.8356 45.2585 14.7677 45.2585 15.8598V17.4979C45.2585 18.0605 45.06 18.5293 44.6628 18.9043C44.2657 19.3014 43.7969 19.5 43.2564 19.5H43.2068C42.6662 19.5 42.1974 19.3014 41.8003 18.9043C41.4032 18.5293 41.2046 18.0605 41.2046 17.4979V15.8598C41.2046 13.2234 42.0871 11.2323 43.8521 9.88654C42.0871 8.55179 41.2046 6.56071 41.2046 3.91328V2.4572C41.2046 1.90565 41.4032 1.43132 41.8003 1.03421C42.1974 0.637095 42.6662 0.438538 43.2068 0.438538H43.2564C43.7969 0.438538 44.2657 0.637095 44.6628 1.03421C45.06 1.43132 45.2585 1.90565 45.2585 2.4572V3.91328ZM64.3365 11.5081C64.3365 12.6001 64.7171 13.5323 65.4782 14.3044C66.2504 15.0656 67.188 15.4461 68.2911 15.4461C69.3832 15.4461 70.3153 15.0656 71.0875 14.3044C71.8486 13.5323 72.2292 12.6001 72.2292 11.5081V2.4572C72.2292 1.90565 72.4277 1.43132 72.8248 1.03421C73.2219 0.637095 73.6963 0.438538 74.2478 0.438538H74.2809C74.8435 0.438538 75.3123 0.637095 75.6874 1.03421C76.0845 1.43132 76.283 1.90565 76.283 2.4572V11.5081C76.283 13.7032 75.4998 15.584 73.9334 17.1504C72.367 18.7168 70.4863 19.5 68.2911 19.5C66.0849 19.5 64.1986 18.7168 62.6322 17.1504C61.0658 15.584 60.2826 13.7032 60.2826 11.5081V2.4572C60.2826 1.90565 60.4812 1.43132 60.8783 1.03421C61.2754 0.637095 61.7442 0.438538 62.2848 0.438538H62.3344C62.8749 0.438538 63.3437 0.637095 63.7408 1.03421C64.138 1.43132 64.3365 1.90565 64.3365 2.4572V11.5081ZM84.7382 4.49241C84.2529 4.49241 83.8447 4.65787 83.5138 4.9888C83.1829 5.33076 83.0174 5.7389 83.0174 6.21323C83.0174 6.87509 83.3373 7.37148 83.9771 7.70241C84.1977 7.82375 85.1188 8.09953 86.7404 8.52973C88.053 8.90478 89.0293 9.39566 89.6691 10.0024C90.5846 10.8738 91.0424 12.1148 91.0424 13.7253C91.0424 15.3138 90.4798 16.6761 89.3547 17.8123C88.2185 18.9374 86.8562 19.5 85.2677 19.5H80.9491C80.4086 19.5 79.9398 19.3014 79.5427 18.9043C79.1455 18.5293 78.947 18.0605 78.947 17.4979V17.4648C78.947 16.9132 79.1455 16.4389 79.5427 16.0418C79.9398 15.6447 80.4086 15.4461 80.9491 15.4461H85.4332C85.9185 15.4461 86.3267 15.2807 86.6576 14.9497C86.9885 14.6188 87.154 14.2107 87.154 13.7253C87.154 13.1186 86.8396 12.6608 86.2109 12.352C86.0454 12.2747 85.1188 11.999 83.4311 11.5246C82.1184 11.1385 81.1421 10.6311 80.5024 10.0024C79.5868 9.10886 79.129 7.84581 79.129 6.21323C79.129 4.62478 79.6916 3.26797 80.8167 2.14282C81.9529 1.00663 83.3152 0.438538 84.9037 0.438538H87.9482C88.4998 0.438538 88.9741 0.637095 89.3712 1.03421C89.7683 1.43132 89.9669 1.90565 89.9669 2.4572V2.49029C89.9669 3.05287 89.7683 3.52169 89.3712 3.89674C88.9741 4.29385 88.4998 4.49241 87.9482 4.49241H84.7382Z" fill="black"/>
</svg>
