<svg width="23" height="24" viewBox="0 0 23 24" fill="none" xmlns="http://www.w3.org/2000/svg">
<path d="M13.1561 8.81058C14.0369 8.81058 14.7508 9.52454 14.7508 10.4053C14.7508 11.286 14.0369 11.9999 13.1561 11.9999H9.16944C8.28872 11.9999 7.57475 11.286 7.57475 10.4053C7.57475 9.52454 8.28872 8.81058 9.16944 8.81058H13.1561Z" fill="url(#paint0_linear_2116_10879)"/>
<path fill-rule="evenodd" clip-rule="evenodd" d="M16.7442 0.837158C19.8267 0.837158 22.3256 3.33603 22.3256 6.41855V17.5813C22.3256 20.6639 19.8267 23.1627 16.7442 23.1627H14.3522V21.5681C14.3522 19.8066 12.9242 18.3787 11.1628 18.3787C9.40135 18.3787 7.97342 19.8066 7.97342 21.5681V23.1627H5.5814C2.49888 23.1627 0 20.6639 0 17.5813V6.41855C0 3.33603 2.49888 0.837158 5.5814 0.837158H16.7442ZM5.5814 4.02653C4.26032 4.02653 3.18937 5.09747 3.18937 6.41855V8.81058H5.18272C6.06344 8.81058 6.77741 9.52454 6.77741 10.4053C6.77741 11.286 6.06344 11.9999 5.18272 11.9999H3.18937V17.5813C3.18937 18.7033 3.96191 19.6446 5.00402 19.9029C5.73637 17.1876 8.21603 15.1893 11.1628 15.1893C14.1095 15.1893 16.5888 17.1876 17.3212 19.9029C18.3635 19.6447 19.1362 18.7035 19.1362 17.5813V11.9999H17.1429C16.2621 11.9999 15.5482 11.286 15.5482 10.4053C15.5482 9.52454 16.2621 8.81058 17.1429 8.81058H19.1362V6.41855C19.1362 5.09747 18.0653 4.02653 16.7442 4.02653H5.5814Z" fill="url(#paint1_linear_2116_10879)"/>
<defs>
<linearGradient id="paint0_linear_2116_10879" x1="0" y1="0.837158" x2="22.3256" y2="23.1627" gradientUnits="userSpaceOnUse">
<stop stop-color="#FF8800"/>
<stop offset="1" stop-color="#FF3B30"/>
</linearGradient>
<linearGradient id="paint1_linear_2116_10879" x1="0" y1="0.837158" x2="22.3256" y2="23.1627" gradientUnits="userSpaceOnUse">
<stop stop-color="#FF8800"/>
<stop offset="1" stop-color="#FF3B30"/>
</linearGradient>
</defs>
</svg>
